<svg width="48" height="48" viewBox="0 0 48 48" fill="none" xmlns="http://www.w3.org/2000/svg">
<path d="M29 6H15.744C14.781 6 14 6.781 14 7.744V15.003H29V6Z" fill="#169154"/>
<path d="M14 33.0537V40.2557C14 41.2187 14.781 41.9997 15.743 41.9997H29V33.0537H14Z" fill="#18482A"/>
<path d="M14 15.0029H29V24.0049H14V15.0029Z" fill="#0C8045"/>
<path d="M14 24.0049H29V33.0549H14V24.0049Z" fill="#17472A"/>
<path d="M42.256 6H29V15.003H44V7.744C44 6.781 43.219 6 42.256 6Z" fill="#29C27F"/>
<path d="M29 33.0537V41.9997H42.257C43.219 41.9997 44 41.2187 44 40.2567V33.0547H29V33.0537Z" fill="#27663F"/>
<path d="M29 15.0029H44V24.0049H29V15.0029Z" fill="#19AC65"/>
<path d="M29 24.0049H44V33.0549H29V24.0049Z" fill="#129652"/>
<path d="M22.319 34H5.681C4.753 34 4 33.247 4 32.319V15.681C4 14.753 4.753 14 5.681 14H22.319C23.247 14 24 14.753 24 15.681V32.319C24 33.247 23.247 34 22.319 34Z" fill="#0C7238"/>
<path d="M9.80688 19H12.1929L14.1289 22.754L16.1749 19H18.4039L15.3329 24L18.4739 29H16.1229L14.0129 25.07L11.9119 29H9.52588L12.7189 23.982L9.80688 19Z" fill="white"/>
</svg>
